<svg width="86" height="100" viewBox="0 0 86 100" fill="none" xmlns="http://www.w3.org/2000/svg">
<path d="M74.5339 19.524C74.4668 19.0231 74.0449 18.7454 73.6934 18.7156C73.3451 18.6859 66.5194 18.5784 66.5194 18.5784C66.5194 18.5784 60.8122 12.8435 60.2482 12.26C59.6842 11.6764 58.5833 11.8516 58.1551 11.9839C58.1503 11.9872 57.083 12.3277 55.2887 12.9031C54.9883 11.8963 54.5457 10.658 53.9162 9.41485C51.8838 5.40259 48.9072 3.27992 45.3122 3.27496H45.2978C45.0485 3.27496 44.8009 3.29975 44.5516 3.32125C44.4446 3.18899 44.3391 3.06004 44.2273 2.9344C42.6599 1.20022 40.6531 0.355448 38.2452 0.429841C33.6021 0.567055 28.9765 4.03707 25.2266 10.2018C22.5886 14.538 20.5802 19.9869 20.0114 24.2058C14.678 25.9152 10.9488 27.1088 10.8674 27.1369C8.1751 28.0114 8.09042 28.0974 7.73891 30.7226C7.47848 32.7064 0.435486 89.0533 0.435486 89.0533L59.4557 99.6154L85.036 93.0358C85.036 93.0358 74.5994 20.0249 74.5339 19.524ZM52.3328 13.8503C50.9747 14.2851 49.4296 14.7811 47.7536 15.3167C47.7184 12.8849 47.4404 9.49916 46.3443 6.57469C49.8674 7.26572 51.6026 11.3904 52.3328 13.8503ZM44.6651 16.3069C41.5718 17.2988 38.1973 18.38 34.8116 19.4645C35.7639 15.692 37.5694 11.9343 39.7887 9.47271C40.6115 8.5552 41.7667 7.53519 43.1344 6.95162C44.419 9.72565 44.697 13.6519 44.6651 16.3069ZM38.3379 3.62708C39.4292 3.60228 40.3463 3.85026 41.1308 4.38424C39.8749 5.05873 38.6622 6.02749 37.5246 7.29052C34.5751 10.5638 32.3143 15.6473 31.4131 20.5506C28.6011 21.4516 25.8513 22.3344 23.3188 23.1428C24.9182 15.4241 31.1703 3.842 38.3379 3.62708Z" fill="white"/>
<path d="M45.2816 32.326L42.3114 43.8271C42.3114 43.8271 38.996 42.2665 35.0686 42.5228C29.3071 42.8997 29.2464 46.6573 29.3055 47.6013C29.6186 52.7443 42.6964 53.8685 43.4298 65.9152C44.0082 75.3928 38.571 81.8766 30.7387 82.3891C21.3358 83.0024 16.1606 77.2642 16.1606 77.2642L18.153 68.4974C18.153 68.4974 23.3634 72.5643 27.5335 72.2915C30.2577 72.1129 31.2308 69.82 31.1317 68.1999C30.7227 61.4913 20.0735 61.8864 19.4009 50.863C18.8337 41.5871 24.7231 32.1854 37.7146 31.339C42.7204 31.0051 45.2816 32.326 45.2816 32.326Z" fill="#262B32"/>
<path d="M73.6934 18.7204C73.3451 18.689 66.521 18.5832 66.521 18.5832C66.521 18.5832 60.8138 12.8467 60.2497 12.2648C60.0388 12.0466 59.7544 11.9341 59.4572 11.8878L59.4604 99.6136L85.0376 93.0373C85.0376 93.0373 74.6009 20.0297 74.5354 19.5288C74.4683 19.0279 74.0433 18.7502 73.6934 18.7204Z" fill="#262B32" fill-opacity="0.9"/>
</svg>
